<svg xmlns="http://www.w3.org/2000/svg" xml:space="preserve" width="1948.9319" height="473.92386" viewBox="0 0 1948.9319 473.92386"><defs><clipPath id="a" clipPathUnits="userSpaceOnUse"><path d="M0 2834.65h2834.65V0H0Z"/></clipPath></defs><g clip-path="url(#a)" style="stroke-width:.900235" transform="matrix(1.4811 0 0 -1.4811 -287.719 2586.122)"><g style="stroke-width:.900235"><path d="M0 0c-.663-1.723-1.872-3.59-3.621-5.581-1.778-2.072-4.022-4.032-6.685-5.838a140 140 0 0 0-8.453-5.391c-1.961-1.116-3.096-1.452-3.652-1.55-.47 2.234.181 4.835 1.904 7.683a56 56 0 0 1 2.502 4.364l1.618 3.209a70 70 0 0 1 1.788 2.93c.231.418.658 1.084 1.436 2.046 1.092.206 2.274.423 3.52.641 1.812.317 3.338.605 4.651.878 1.16.036 2.178-.068 2.986-.295a7.4 7.4 0 0 0 1.931-.887C.375 1.376.291.724 0 0m48.108 100.558c-3.801-.212-8.746-.588-15.095-1.147l-3.547-.298c-5.119-.43-10.638-.893-16.57-1.364a1559 1559 0 0 0-23.066-1.662 526 526 0 0 0-15.389-.797 1479 1479 0 0 0 14.682 16.457c7.175 8.001 14.011 15.262 20.355 21.622a314 314 0 0 0 4.8-3.426 235 235 0 0 1 7.337-5.217 83 83 0 0 1 6.533-5.03c2.196-1.515 4.122-2.653 5.871-3.467 4.044-3.151 8.819-5.82 14.201-7.938 6.302-2.48 10.978-2.682 14.287-.616 2.391 1.419 3.212 3.303 3.478 4.638.46 2.301-.33 4.818-2.33 7.46-2.526 3.388-6.758 7.861-12.939 13.676a3 3 0 0 1-.172.153l-21.032 17.401c9.029 7.933 13.459 15.363 13.517 22.622.101 8.544-6.818 15.527-20.565 20.756l-.132.048c-4.722 1.588-10.321 3.16-16.627 4.67a826 826 0 0 1-18.351 4.23c-5.789 1.175-12.541 2.492-20.359 4.017l-.709.138a3.6 3.6 0 0 1-2.468-.402c-5.568-3.158-9.56-6.174-12.203-9.222a4 4 0 0 1-.183-.229c-4.976-6.785-6.446-9.67-4.775-12.347 1.06-1.699 2.693-2.671 13.033-4.239a1214 1214 0 0 0 22.178-4.255c8.706-1.771 16.772-3.598 23.98-5.431 3.86-1.338 6.348-2.987 6.998-4.617.265-.687-.401-2.81-4.56-6.422-2.703-2.152-6.491-5.835-11.92-11.594a1277 1277 0 0 1-16.598-18.138 1481 1481 0 0 1-18.262-20.067c-5.57-6.207-10.649-11.75-15.115-16.497a305 305 0 0 0-12.572-.322h-.041c-4.325 0-8.076.226-11.467.691a3.6 3.6 0 0 1-3.002-.986 98 98 0 0 0-3.112-2.895 121 121 0 0 0-2.445-2.189l-.097-.082c-.801-.68-1.603-1.36-2.379-2.039-1.059-.926-2.042-2.056-2.922-3.362-3.196-4.109-3.109-8.552.243-11.909 2.904-2.908 8.379-4.055 17.225-3.601 3.226.153 7.663.439 14.251.882 5.249.375 12.285.889 20.27 1.549 7.063.777 14.704 1.545 22.709 2.284A555 555 0 0 1 .297 73.907a62 62 0 0 1-2.553-7.187 222 222 0 0 1-3.062-11.984c-2.499-9.862-3.072-16.492-1.653-20.617-1.095-.471-2.175-1.197-3.212-2.176-9.659-7.621-17.967-16.203-24.702-25.516-6.857-9.536-11.056-16.735-12.816-21.943-2.072-5.765-2.727-10.791-2-15.366.794-5 3.308-8.755 7.272-10.865 2.483-1.449 5.49-2.176 8.989-2.176 1.863 0 3.867.206 6.004.619 5.775 1.145 12.693 4.375 20.538 9.582C7.42-24.392 17.048-14.995 21.716-5.793c5.06 9.948 5.352 18.061.868 24.113a3 3 0 0 1-.096.123c-2.558 3.157-6.139 5.259-10.665 6.254a47 47 0 0 1-7.458.968c.046 1.8-.405 3.269-1.036 4.431 2.775 1.661 6.654 5.989 12.537 19.125q.057.128.104.26c.569 1.589 1.329 3.493 2.249 5.627a182 182 0 0 0 3.507 7.459q.031.063.061.129c1.109 2.473 2.431 5.023 4.267 8.239a64 64 0 0 0 4.6 6.824l17.697 2.74.102.017c36.911 6.802 40.193 10.93 40.532 15.271.106 1.478-.443 2.877-1.547 3.939-2.354 2.261-7.526 4.378-39.33.832" style="fill:#231916;fill-opacity:1;fill-rule:nonzero;stroke:none;stroke-width:.900235" transform="translate(776.026 1511.372)"/></g><g style="stroke-width:.900235"><path d="M0 0a654 654 0 0 0 8.321 14.499c2.804-2.486 6.024-5 9.615-7.509 5.056-3.552 9.348-5.93 12.763-7.072 5.623-2.778 10.398-4.433 14.608-5.06 4.221-.607 7.86-.264 10.824 1.02 1.634.302 3.14.988 4.48 2.043 2.267 1.783 2.904 4.601 1.645 7.391-.81 1.745-2.477 3.735-5.276 6.291-2.526 2.256-6.424 5.059-11.916 8.57a4 4 0 0 1-.245.143c-1.114.595-2.616 1.653-4.423 3.115-1.691 1.407-3.518 2.912-5.466 4.517l-1.054.868a3 3 0 0 1-.143.112 116 116 0 0 0-7.156 5.769 280 280 0 0 0-4.15 3.641c3.63 6.147 6.653 11.211 9.205 15.423 3.677 6.07 5.582 8.666 6.533 9.776q.106.124.201.256c2.702 3.8 4.362 6.432 5.265 7.948 1.384 2.285 2.017 4.135 1.969 5.771.148 2.16-.895 4.092-2.91 5.262-.3.165-.858.565-1.813 1.533q-.23.233-.499.421c-3.126 2.186-5.993 2.087-7.807 1.63-2.092-.501-4.247-1.581-6.405-3.21a4 4 0 0 1-.151-.12 45.5 45.5 0 0 1-4.969-4.923A233 233 0 0 0 17.2 73.74a3.6 3.6 0 0 1-.483-.68c-1.489-2.718-4.969-8.731-10.644-18.393C2.811 49.071-.63 43.187-4.239 37.015l-7.799-13.345A3065 3065 0 0 0-30.103-8.566c-6.033-10.676-9.625-17.39-11.299-21.116-1.432-2.933-2.377-5.031-2.888-6.411-.534-1.443-1.133-3.597-.173-5.643a4 4 0 0 1 .143-.274c.886-1.531 2.494-2.25 3.797-2.705q.076-.027.153-.05c.677-.203 1.683-.566 2.849-.986l.182-.065c2.065-2.384 4.39-3.878 6.943-4.453q.63-.135 1.213-.134c5.284.001 7.865 7.925 9.151 11.874q.021.066.04.133c.221.778.956 2.792 3.41 7.566 1.803 3.568 4.114 7.989 7.056 13.498 2.598 4.792 5.412 9.884 8.39 15.276z" style="fill:#231916;fill-opacity:1;fill-rule:nonzero;stroke:none;stroke-width:.900235" transform="translate(933.734 1615.359)"/></g><g style="stroke-width:.900235"><path d="M0 0c-7.804 6.403-12.998 2.216-14.88.105-2.835-3.21-5.783-8.138-9.012-15.063-1.609-3.008-4.423-8.368-7.733-14.73-3.799-7.285-7.772-15.508-11.805-24.431-4.097-8.981-7.684-17.971-10.657-26.71-3.137-9.109-4.488-16.26-4.127-21.848-.246-4.203.504-7.355 2.26-9.592 2.39-3.13 5.043-3.864 6.848-3.928q.077-.002.156-.003c1.882 0 4.653.58 7.3 3.356 1.976 2.145 3.092 5.216 3.412 9.386.559 5.183 2.423 11.941 5.543 20.092a285 285 0 0 0 10.616 24.342c3.81 8.007 7.547 15.292 11.099 21.638 3.595 6.365 5.99 10.323 7.323 12.101q.056.077.11.156c5.996 8.948 7.02 12.701 7.267 14.74C4.166-6.771 3.018-3.311.4-.384A3.5 3.5 0 0 1 0 0" style="fill:#231916;fill-opacity:1;fill-rule:nonzero;stroke:none;stroke-width:.900235" transform="translate(1070.645 1701.737)"/></g><g style="stroke-width:.900235"><path d="M0 0a3 3 0 0 1-.385-.092c-2.289-.682-4.266-1.191-5.971-1.537Q-5.7-.778-5.059.109C-2.462 3.673-.543 7.4.644 11.187q.031.099.056.199c.994 3.952 1.016 7.928.066 11.814-1.028 4.221-3.799 7.861-8.239 10.819a3.5 3.5 0 0 1-.578.313c-6.235 2.673-12.437 4.752-18.436 6.178a259 259 0 0 1-11.165 2.42c1.335 2.785 1.957 5.097 1.927 7.108-.147 5.334-3.492 6.947-4.924 7.393l-.147.042c-2.553.679-5.505.299-8.712-1.102-2.85-1.187-5.55-2.978-8.023-5.325a3.6 3.6 0 0 1-.539-.648l-4.461-6.852a3.6 3.6 0 0 1-.983-.407c-1.509-.907-2.416-1.29-2.823-1.438a16 16 0 0 1-3.007-1.466c-.972-.429-2.037-1.064-3.243-1.934l-.092-.069q-.689-.528-1.459-1.105c-.685-.515-1.416-1.064-2.191-1.666a3.6 3.6 0 0 1-.676-.688c-2.286-3.056-3.035-6.559-2.167-10.125.596-2.465 1.877-4.498 3.767-6.012A1154 1154 0 0 1-83.853.208c-3.409-7.536-6.436-14.737-8.98-21.362-2.82-7.078-5.143-13.508-6.898-19.104-1.813-5.731-2.884-9.957-3.268-12.908-.99-4.445-.814-7.892.547-10.546 1.94-3.744 4.612-4.697 6.577-4.813q.43-.05.913-.052c1.937 0 4.486.698 7.094 3.4 2.124 2.206 3.756 5.353 4.99 9.621l.029.106c.807 3.15 2.354 7.505 4.727 13.306a1616 1616 0 0 0 8.007 19.093c2.801 6.287 5.88 13.077 9.409 20.751a4949 4949 0 0 0 8.373 17.949c3.59.356 7.233.522 10.847.5 3.814-.003 7.046-.323 9.617-.954a65 65 0 0 0 3.805-2.274c1.076-.702 1.367-1.408 1.5-1.944q.056-.227.14-.443c.124-.318.003-1.17-.768-2.57-.602-1.129-2.271-3.098-6.804-6.068l-.101-.069c-4.504-3.173-7.824-5.199-10.214-6.219a25.4 25.4 0 0 0-7.395-2.069c-3.13-.361-5.899-1.399-8.202-3.067-2.332-1.655-4.358-4.088-6.194-7.438a4 4 0 0 1-.13-.262c-2.846-6.365-3.505-10.277-2.205-13.079a5.62 5.62 0 0 1 3.583-3.067c2.868-.84 6.057-1.039 9.782-.604 2.609.327 5.447.697 8.493 1.179 3.014.45 6.114.982 9.447 1.619 2.79.508 5.714 1.072 8.911 1.72a218 218 0 0 1 7.208 1.511c1.556.196 3.567.466 5.631.836a42 42 0 0 1 6.167 1.598c2.411.516 4.979 1.357 7.627 2.495 2.807 1.198 5.914 2.787 9.234 4.721l.031.018c7.786 4.642 14.728 9.697 12.819 15.19C18.676 2.234 10.987 1.996 0 0" style="fill:#231916;fill-opacity:1;fill-rule:nonzero;stroke:none;stroke-width:.900235" transform="translate(1029.825 1537.149)"/></g><g style="stroke-width:.900235"><path d="M0 0c-2.066 1.498-3.928 2.264-5.684 2.342-.06.002-.125.003-.181.003-1.894-.012-3.653-.636-5.229-1.854-1.298-.964-2.486-2.191-3.531-3.648-.768-1.072-1.701-2.263-2.845-3.697-1.53-1.882-3.299-4.958-5.408-9.404a333 333 0 0 1-5.437-12.147 189 189 0 0 0-12.571-2.315 249 249 0 0 0-7.631-1.028c1.458 3.1 2.973 6.206 4.525 9.281 2.259 4.421 4.455 7.951 6.467 10.423 4.072 4.747 6.042 8.799 6.023 12.388-.013 2.7-1.457 7.352-10.992 8.17a4 4 0 0 1-.264.012c-2.725.039-4.773-.151-6.432-.581-1.899-.493-3.411-1.25-4.616-2.312-1.297-1.032-2.363-2.228-3.17-3.556-.777-1.205-1.513-2.541-2.138-3.708-3.273-5.12-6.583-11.152-9.842-17.936a320 320 0 0 1-8.803-20.139c-9.134-6.324-19.687-12.832-31.385-19.351-12.143-6.756-24.01-12.431-35.361-16.903-7.857-3.336-11.139-3.76-12.36-3.736-.953.038-1.437.191-1.642.279-.049.733.107 1.923.882 3.785a133 133 0 0 0 3.34 7.264c2.926 5.602 6.354 11.602 10.199 17.85 3.588 5.903 8.792 12.922 15.478 20.879 4.835.08 9.451.41 13.745.981 5.033.673 9.33 1.6 13.133 2.833 9.444 2.662 15.592 4.915 18.773 6.877 2.133 1.297 4.612 3.14 4.854 5.907.133 1.523-.482 3.004-1.719 4.091-1.818 1.56-4.882 2.48-9.935 2.983-4.222.421-8.976.61-14.575.584-12.82-.232-24.024.23-33.306 1.371-9.321 1.121-16.895 2.418-22.508 3.853a4 4 0 0 1-.502.091c-2.169.237-3.713.545-4.771.959a115 115 0 0 1-3.879 1.384 3.6 3.6 0 0 1-.907.18c-1.77.119-3.313-.03-4.704-.448-1.322-.389-2.928-1.148-5.056-2.386a3.5 3.5 0 0 1-.536-.382c-2.523-2.168-4.411-3.869-5.671-5.116a327 327 0 0 1-3.946-4.197 3 3 0 0 1-.165-.191c-3.631-4.506-4.603-8.496-2.898-11.846 2.188-4.342 8.345-5.083 12.924-5.228a116 116 0 0 1 15.204-1.862c2.883-.178 5.825-.299 8.879-.364l-2.574-3.206c-2.966-3.668-5.953-7.546-8.484-10.855l-.08-.109c-2.374-3.356-4.663-6.696-6.877-9.926l-1.303-1.899c-2.592-3.803-4.811-7.509-6.565-10.956-4.032-7.584-6.405-14.774-7.05-21.361-.725-7.148.642-12.913 4.063-17.134 3.246-4.328 8.528-6.519 15.707-6.519q.3 0 .606.005c6.902.116 15.711 3.076 26.185 8.799 11.441 5.563 22.92 12.11 34.121 19.46a868 868 0 0 1 18.099 12.184q-.464-1.236-.879-2.369c-1.743-4.882-2.21-6.733-2.366-7.804-.781-2.924-1.364-5.139-1.724-6.801-.491-2.119-.659-3.865-.52-5.252.196-2.577 1.417-4.139 2.354-4.947 1.067-.961 2.632-1.735 4.779-2.364 3.16-1.417 6.319-1.617 9.395-.595 3.537 1.175 6.122 4.99 8.138 12.004q.022.08.042.16c.263 1.107 1.154 4.184 4.149 12.333a1714 1714 0 0 0 7.44 19.532c4.468.52 9.108 1.433 13.828 2.721a144 144 0 0 1 8.096 2.476l-.36-.956c-.249-.664-.483-1.287-.71-1.868a3 3 0 0 1-.077-.22 91 91 0 0 1-1.37-4.719c-.407-1.505-.671-2.614-.845-3.541-.949-2.815-1.823-5.823-2.674-9.202-.838-3.398-1.263-6.56-1.263-9.401-.236-3.127.185-5.608 1.251-7.517.724-1.364 3.001-4.34 8.638-2.956 2.913.299 5.306 1.245 7.102 2.802 1.626 1.392 3.098 3.474 4.378 6.188 1.191 2.267 2.285 5.218 3.342 9.025.988 3.583 2.298 7.786 3.899 12.511.782 2.352 1.985 5.664 3.794 10.437a327 327 0 0 0 5.407 13.53l.057.141c1.652 4.396 3.373 8.374 5.107 11.813 2.141 4.212 2.995 5.075 3.099 5.171q.168.12.321.26c4.791 4.362 5.26 8.717 4.81 11.601C5.693-4.929 3.513-1.862 0 0" style="fill:#231916;fill-opacity:1;fill-rule:nonzero;stroke:none;stroke-width:.900235" transform="translate(1279.438 1642.09)"/></g><g style="stroke-width:.900235"><path d="M0 0c-3.188.903-7.734.515-14.307-1.222a169 169 0 0 0-9.246-2.175c-3.188-.68-6.49-1.222-9.811-1.612a4 4 0 0 1-.195-.028 346 346 0 0 0-10.043-1.604q-1.388-.217-2.724-.411a158 158 0 0 0 4.347 10.631c2.163 4.799 4.302 8.638 6.361 11.415 1.68 1.905 3.153 4.19 4.37 6.768 1.272 2.637 2.118 4.93 2.585 7.009q.048.216.07.436c.36 3.644-.846 6.036-1.983 7.477-1.841 2.211-4.685 3.103-8.4 2.658a16.3 16.3 0 0 1-6.657-2.225 22.5 22.5 0 0 1-4.908-3.96c-1.462-1.622-2.693-3.164-3.766-4.716a77 77 0 0 1-2.747-4.232c-3.172-5.645-6.378-12.229-9.798-20.12-3.276-7.498-6.26-14.959-8.858-22.14-2.926-7.843-5.222-14.262-7.015-19.612-2.442-7.193-3.094-9.794-3.322-11.114-1.824-5.861-2.642-9.87-2.574-12.564.03-2.222.968-6.204 6.859-8.201 1.868-.958 3.79-1.437 5.711-1.437 1.803 0 3.605.422 5.358 1.267 3.772 1.78 6.459 6.095 8.214 13.191q.055.219.081.441c.126 1.06.623 3.46 2.28 8.891 1.281 4.253 2.652 8.719 4.088 13.308 5.654.29 12.189 1.442 19.475 3.433 8.244 2.259 16.948 5.265 25.872 8.937 4.298 1.235 7.959 3.1 10.888 5.546C3.5-13.211 5.293-10.562 5.68-7.874 6.286-4.973 5.108-1.447 0 0" style="fill:#231916;fill-opacity:1;fill-rule:nonzero;stroke:none;stroke-width:.900235" transform="translate(1504.309 1636.729)"/></g><g style="stroke-width:.900235"><path d="M0 0c-.572 4.921-2.535 9.114-5.833 12.461s-8.359 5.564-15.476 6.782l-.115.018c-2.659.367-5.887.564-9.868.602l-2.71.024c-2.721.024-5.36.047-7.929.09-.076.001-.158 0-.237-.004-3.101-.153-6.988-.273-11.885-.368a3 3 0 0 1-.227-.011c-8.713-.72-15.059-3.448-18.861-8.105a3 3 0 0 1-.215-.292c-5.949-9.001-4.045-14.545-1.401-17.61 3.478-4.032 8.409-5.729 14.674-5.043l5.392.616q2.527.291 4.791.548c2.808.317 5.509.516 8.029.589q.145.005.288.02c2.205.243 4.38.383 6.417.418 1.668.021 3.458-.076 5.625-.257 1.932-.462 2.923-1.081 2.947-1.838.049-1.56-.332-5.045-2.416-12.771l-17.536-63.468c-1.994-6.368-2.885-11.645-2.724-16.133.136-3.777.724-8.353 4.089-10.23q.123-.07.252-.128a5.65 5.65 0 0 1 2.382-.536c3.877 0 7.015 4.115 8.174 5.635 2.834 3.715 5.853 10.085 9.202 19.402 1.166 3.034 2.474 6.94 3.889 11.609.789 2.605 1.634 5.354 2.526 8.261.671 2.185 1.369 4.46 2.11 6.884a723 723 0 0 0 4.828 16.01 875 875 0 0 0 4.901 15.386 379 379 0 0 1 5.036 16.438C-.341-9.392.28-4.55.018-.2A3 3 0 0 1 0 0" style="fill:#231916;fill-opacity:1;fill-rule:nonzero;stroke:none;stroke-width:.900235" transform="translate(1438.266 1540.732)"/></g><g style="stroke-width:.900235"><path d="M0 0c.577 2.392 1.647 5.092 3.182 8.029 1.849 2.907 4.043 5.894 6.522 8.881q1.657 1.997 3.212 3.879c1.383 1.674 2.706 3.273 3.962 4.778l6.38 6.745c3.329.299 7.062.349 11.143.147 3.396-.136 4.241-.899 4.334-1.043.123-3.151-1.493-6.797-4.8-10.835A92.6 92.6 0 0 0 20.949 7.686C15.947 3.997 11.047 1.061 6.39-1.038 2.649-2.715 1.132-2.678.756-2.631q-.174.167-.371.31C.105-2.119-.415-1.742 0 0m50.601 6.364c4.509 5.637 7.92 11.515 10.136 17.471 2.365 6.352 2.723 12.647 1.065 18.71q-.056.204-.135.401c-1.791 4.427-5.047 7.814-9.625 10.042-2.577 1.306-5.407 2.355-8.557 3.166 3.657 5.529 6.234 11.255 7.683 17.085 1.967 7.951-.626 15.254-7.704 21.728.199 1.473.684 3.237 1.451 5.265 1.137 3.006 2.448 5.726 3.897 8.085 4.244 6.28 8.55 11.869 12.794 16.607 4.41 4.897 8.408 9.084 11.811 12.379a470 470 0 0 0 9.445 8.431c2.75 2.373 4.297 3.732 5.117 4.574q.225.23.404.495c2 2.95 2.7 5.939 2.073 8.927-.606 2.722-2.056 5.058-4.352 6.982-2.104 1.706-4.59 2.881-7.341 3.482-3 .699-5.915.451-8.659-.737a3.6 3.6 0 0 1-.942-.595c-1.727-1.51-3.65-3.287-5.848-5.402-2.132-2.003-4.319-4.227-6.685-6.797a133 133 0 0 1-7.036-7.556 98 98 0 0 1-6.779-8.606l-.056-.084c-3.687-5.614-6.535-10.166-8.71-13.918-2.182-3.781-3.814-7.054-4.849-9.73-1.238-2.938-2.136-5.615-2.664-7.933a72 72 0 0 1-.482-2.2c-2.779 1.339-5.818 2.523-9.088 3.539-5.215 1.619-10.481 2.812-15.653 3.544-5.604 1.002-10.611 1.494-15.307 1.506-5.189.013-8.918-.25-11.729-.818-6.378-1.256-10.642-3.477-13.036-6.789-2.376-3.287-3.371-6.73-2.957-10.233q.015-.12.037-.239c.64-3.424 2.359-6.365 5.075-8.709 2.882-2.555 6.47-3.614 10.667-3.144 2.201.248 5.89.515 10.93.793 5.008.224 10.226.114 15.512-.33 5.253-.657 10.327-1.924 15.093-3.773 4.2-1.608 7.12-4.106 8.924-7.632.719-1.941.376-4.48-1.018-7.543-1.595-3.483-4.004-7.191-7.167-11.035a83 83 0 0 1-7.222-2.379c-2.771-1.086-4.969-2.193-6.722-3.383a3.6 3.6 0 0 1-.965-.969c-3.246-4.826-4.69-8.235-4.68-11.054.005-1.504.321-2.835.915-3.946a435 435 0 0 0-6.357-7.066 230 230 0 0 1-7.989-9.144 4 4 0 0 1-.175-.229 852 852 0 0 1-6.02-8.661c-2.045-2.986-3.463-5.675-4.336-8.218-3.566-9.533-3.692-16.431-.394-21.071 3.121-4.44 7.73-7.026 13.744-7.69a40 40 0 0 1 3.83-.183c4.497 0 9.242.734 14.15 2.192 6.122 1.818 11.375 3.936 15.653 6.319 4.82 2.762 9.974 6.417 15.766 11.18 5.582 4.618 10.633 9.607 15.067 14.893" style="fill:#231916;fill-opacity:1;fill-rule:nonzero;stroke:none;stroke-width:.900235" transform="translate(1335.915 1575.507)"/></g><g style="stroke-width:.900235"><path d="M0 0c13.404 6.682 34.834 14.136 40.775 9.893a3.6 3.6 0 0 1 1.105-.533c2.855-.813 8.985-.661 11.738 5.764 1.371 3.199.823 5.629.122 7.105-1.348 2.835-4.109 4.022-5.095 4.368-2.691 1.189-26.856 10.95-60.861-5.315a4 4 0 0 1-.272-.144C-39.316 5.356-112.911-51.749-134.06-86.949c-2.049-2.51-13.221-16.944-8.227-27.334 2.933-6.102 10.471-9.088 22.406-8.835 4.208.084 8.235.159 12.097.23 30.525.566 50.69.94 68.784 4.29 18.467 3.42 50.368 2.997 56.593-4.597.74-.903 1.364-2.162.369-4.647-3.524-8.809-19.207-29.784-46.29-48.561-23.374-16.207-62.469-35.593-116.195-36.154-3.639 1.594-8.257 4.745-8.257 6.798a3.6 3.6 0 0 1-2.465 3.419c-1.049.35-6.454 1.936-9.759-1.188-1.391-1.316-2.789-3.839-1.549-8.384 3.477-12.751 14.71-25.9 46.242-25.9 9.519.001 20.891 1.2 34.452 3.969 38.81 6.033 69.523 27.963 88.46 45.304 20.472 18.747 31.674 35.86 32.141 36.579q.055.086.106.174c1.344 2.353 12.955 23.372 6.709 36.693-2.363 5.038-6.813 8.218-13.231 9.455-22.072 9.581-68.789 4.921-71.976 4.588-1.288-.061-15.2-.689-29.464-.176-26 .936-29.94 4.815-30.378 5.383.042.134.168.431.532.909C-98.224-88.718-55.126-33.281 0 0" style="fill:#231916;fill-opacity:1;fill-rule:nonzero;stroke:none;stroke-width:.900235" transform="translate(361.293 1675.577)"/></g><g style="stroke-width:.900235"><path d="M0 0c-5.259 4.381-12.556.439-16.292-2.779-15.979-9.115-38.768-56.041-55.444-90.379-6.17-12.705-11.499-23.678-14.692-28.927a4 4 0 0 1-.164-.303c-4.713-9.736-7.3-10.139-7.29-10.145-1.279.381-3.575 5.606-4.467 11.203l-5.189 79.298c-.045 1.13-1.267 27.728-16.514 37.087-2.228 1.504-4.791 1.9-7.419 1.143-9.994-2.876-19.163-23.235-20.886-27.255-.246-.559-24.745-56.302-39.477-95.346-5.933-15.719-9.478-15.986-9.554-15.986h-.001c-1.503.118-4.496 5.893-5.846 12.46l-.036.154-21.48 85.923c-.45 6.217-4.646 18.069-17.704 20.818-6.098 1.284-9.406-.723-11.109-2.633-4.587-5.143-2.058-14.331-1.308-16.672.964-4.922 17.562-89.396 30.501-136.842q.054-.195.128-.381c6.583-16.58 13.956-24.64 22.539-24.64h.053c14.016.053 23.258 22.813 24.253 25.374.354.887 35.294 88.246 42.984 108.19 2.828 4.035 4.412 4.723 4.759 4.83 1.356-.909 2.954-6.761 3.293-12.094-.133-3.567-1.837-54.879 7.527-96.658 3.132-13.975 8.064-21.258 15.075-22.264q.766-.11 1.528-.109c11.406.002 21.609 17.813 22.781 19.929q.05.089.094.181L-.151-12.488c1.193 1.061 3.138 3.237 3.25 6.216C3.16-4.64 2.671-2.227 0 0" style="fill:#231916;fill-opacity:1;fill-rule:nonzero;stroke:none;stroke-width:.900235" transform="translate(665.206 1670.355)"/></g></g></svg>