<?xml version="1.0" encoding="UTF-8"?>
<svg id="Layer_1" data-name="Layer 1" xmlns="http://www.w3.org/2000/svg" viewBox="0 0 110 110">
  <defs>
    <style>
      .cls-1 {
        fill: #0d1a1f;
      }
    </style>
  </defs>
  <path class="cls-1" d="M24.33,49.36c-.54-.32-1.2-.48-1.96-.48-.68,0-1.28.12-1.81.36-.53.24-.97.59-1.31,1.04-.15.19-.27.41-.38.63v-5.98h-2.41v15.8h2.41v-6.47c0-.73.11-1.35.34-1.87.23-.52.55-.91.95-1.17.41-.26.88-.4,1.4-.4.67,0,1.17.19,1.51.56.34.37.51.91.51,1.62v7.72h2.41v-7.95c0-.79-.14-1.47-.43-2.05-.29-.58-.7-1.04-1.24-1.36Z"/>
  <path class="cls-1" d="M36.99,58.07v-4.96c0-.88-.18-1.64-.54-2.28-.36-.64-.88-1.12-1.57-1.45-.69-.33-1.51-.5-2.48-.5s-1.78.17-2.51.5c-.72.33-1.29.8-1.7,1.39-.41.59-.63,1.26-.65,2.01h2.51c.04-.63.27-1.13.69-1.49.43-.36.98-.54,1.67-.54.47,0,.87.08,1.19.24.32.16.56.37.72.63.16.26.24.53.24.82,0,.26-.06.48-.18.64-.12.16-.31.29-.56.39-.25.1-.61.18-1.06.25l-1.88.3c-1.16.18-2.06.57-2.69,1.15-.64.58-.95,1.4-.95,2.46,0,.7.16,1.31.49,1.82.33.52.78.92,1.35,1.2.57.28,1.22.42,1.93.42.67,0,1.28-.12,1.83-.35.55-.23,1.02-.55,1.39-.96.17-.18.31-.36.44-.56.01.15.03.3.05.45.06.42.12.78.2,1.1h2.53v-.33c-.15-.12-.26-.41-.34-.86-.08-.45-.12-.94-.12-1.47ZM34.24,57.65c-.24.46-.57.83-1.02,1.09-.44.26-.96.4-1.55.4s-1.03-.15-1.4-.45c-.37-.3-.56-.7-.56-1.2s.16-.91.49-1.2c.33-.29.84-.5,1.53-.64l1.11-.22c.51-.11.93-.23,1.23-.36.19-.08.36-.19.52-.32v1.34c0,.57-.12,1.09-.35,1.55Z"/>
  <path class="cls-1" d="M42.03,45.79h-1.95l-.07,1.13c-.03.55-.12.99-.28,1.32-.16.33-.39.57-.69.72-.3.15-.71.23-1.21.23h-.22v1.92h2.01v6.64c0,.76.14,1.37.41,1.85.27.47.65.82,1.14,1.02.49.21,1.07.31,1.76.31.26,0,.51-.01.74-.04.23-.03.46-.07.69-.14v-1.91c-.27.06-.56.09-.86.09-.47,0-.83-.11-1.09-.32-.25-.22-.38-.58-.38-1.09v-6.42h2.52v-1.92h-2.52v-3.4Z"/>
  <path class="cls-1" d="M53.1,49.57c-.77-.46-1.66-.69-2.67-.69s-1.96.25-2.78.74c-.82.49-1.46,1.2-1.93,2.12-.47.92-.7,1.99-.7,3.23,0,1.34.23,2.47.69,3.38.46.91,1.09,1.59,1.9,2.04.81.45,1.74.67,2.81.67.96,0,1.81-.17,2.53-.52s1.31-.83,1.74-1.45c.43-.62.69-1.35.78-2.18h-2.43c-.1.71-.38,1.25-.82,1.64s-1,.58-1.68.58c-.63,0-1.18-.15-1.64-.45-.46-.3-.81-.75-1.06-1.34-.2-.49-.32-1.08-.36-1.76h8.06v-.79c0-1.25-.21-2.31-.64-3.19-.43-.88-1.02-1.55-1.79-2.01ZM47.83,52.56c.25-.58.59-1.03,1.04-1.33.44-.3.95-.45,1.52-.45s1.04.13,1.43.38c.39.25.69.64.89,1.15.16.4.26.87.29,1.42h-5.48c.06-.43.16-.83.31-1.17Z"/>
  <path class="cls-1" d="M62.92,54.8c-.39.28-.92.42-1.58.42-.77,0-1.4-.18-1.87-.55-.48-.37-.73-.89-.75-1.58h-2.53c.02.83.24,1.54.66,2.14.41.6,1,1.06,1.77,1.38.76.32,1.66.48,2.69.48.9,0,1.7-.14,2.41-.43.71-.29,1.27-.72,1.69-1.29.41-.57.62-1.26.62-2.07,0-.58-.13-1.09-.38-1.52-.25-.43-.63-.79-1.12-1.07-.5-.28-1.11-.5-1.86-.64l-2.14-.41c-.54-.1-.94-.26-1.18-.47-.25-.21-.37-.5-.37-.85,0-.31.09-.58.26-.82.18-.24.42-.42.74-.55.32-.13.69-.19,1.11-.19.68,0,1.22.18,1.62.53.41.35.62.84.64,1.47h2.48c-.03-.73-.23-1.39-.6-1.98-.37-.58-.9-1.04-1.59-1.37-.69-.33-1.53-.5-2.52-.5s-1.78.16-2.49.48c-.71.32-1.24.76-1.62,1.33-.37.57-.56,1.2-.56,1.91,0,.84.27,1.52.8,2.04.54.52,1.37.9,2.51,1.12l1.95.4c.63.13,1.09.3,1.37.52.28.22.42.53.42.93,0,.48-.2.87-.59,1.15ZM61.89,51.53c-.16.17-.35.25-.57.25s-.42-.08-.59-.25c-.17-.17-.26-.36-.26-.58s.08-.41.25-.58c.17-.17.36-.25.59-.25.21,0,.4.08.57.25.17.17.25.36.25.58s-.08.41-.24.58Z"/>
  <rect class="cls-1" x="67.31" y="44.93" width="2.41" height="15.8"/>
  <path class="cls-1" d="M79.2,49.62c-.8-.5-1.74-.74-2.79-.74s-2,.25-2.81.74c-.81.5-1.43,1.2-1.87,2.12-.44.92-.66,1.99-.66,3.22s.22,2.29.66,3.21c.44.92,1.06,1.63,1.87,2.13.81.5,1.74.75,2.81.75s1.99-.25,2.79-.75c.8-.5,1.43-1.21,1.87-2.13.44-.92.66-1.99.66-3.21s-.22-2.3-.66-3.22c-.44-.92-1.06-1.63-1.87-2.12ZM73.1,55.4c-.08.14-.18.24-.32.31-.14.07-.28.11-.44.11s-.31-.04-.44-.11c-.13-.07-.24-.18-.31-.31-.08-.14-.12-.28-.12-.44s.04-.31.12-.45c.08-.14.18-.24.31-.32.13-.08.28-.12.44-.12s.3.04.43.12c.13.08.24.19.32.32.08.13.12.28.12.44s-.04.3-.12.44ZM78.88,57.2c-.22.62-.55,1.09-.96,1.41-.42.32-.92.48-1.51.48s-1.1-.16-1.52-.48c-.42-.32-.74-.79-.96-1.41-.22-.62-.34-1.37-.34-2.24s.11-1.63.34-2.25c.22-.62.55-1.08.96-1.4.42-.32.93-.47,1.52-.47.89,0,1.58.36,2.07,1.07.49.71.74,1.73.74,3.05,0,.87-.11,1.62-.34,2.24ZM81.22,54.52c.08.14.12.28.12.45s-.04.3-.12.44c-.08.14-.18.24-.32.31-.14.07-.28.11-.44.11s-.31-.04-.44-.11c-.13-.07-.24-.18-.31-.31-.08-.14-.12-.28-.12-.44s.04-.31.12-.45c.08-.14.18-.24.31-.32.13-.08.28-.12.44-.12s.3.04.44.12c.14.08.24.18.32.32Z"/>
  <path class="cls-1" d="M93,52c-.36-.92-.89-1.62-1.57-2.12-.68-.49-1.49-.74-2.43-.74-.6,0-1.13.12-1.6.35-.46.24-.85.57-1.17,1-.12.18-.25.39-.36.64-.04.08-.08.17-.12.26-.04.1-.08.19-.1.29-.1.3-.22.53-.37.69-.15.16-.35.24-.59.24-.17,0-.32-.04-.46-.12-.14-.08-.25-.19-.33-.33-.08-.14-.12-.29-.12-.46s.04-.31.12-.45c.08-.14.19-.24.33-.33.14-.08.3-.12.47-.12h.4c.12,0,.21-.03.28-.1.07-.07.1-.17.1-.29v-.97h-2.39v15.6h2.41v-5.65c.13.25.29.47.46.67.36.41.77.72,1.26.93.48.21,1.01.31,1.59.31.97,0,1.81-.25,2.53-.74.72-.5,1.27-1.2,1.65-2.12.38-.92.57-1.99.57-3.22s-.18-2.32-.55-3.24ZM90.72,57.41c-.21.62-.51,1.1-.93,1.44-.41.34-.91.51-1.51.51s-1.09-.17-1.51-.51c-.42-.34-.74-.82-.96-1.44-.22-.62-.33-1.34-.33-2.15s.11-1.54.33-2.16c.22-.62.54-1.11.96-1.46.42-.35.93-.52,1.51-.52s1.1.17,1.51.52c.41.35.72.83.93,1.45.21.62.31,1.34.31,2.16s-.1,1.54-.31,2.16Z"/>
</svg>